<svg width="50" height="50" viewBox="0 0 50 50" xmlns="http://www.w3.org/2000/svg"><title>11AEBFE1-DB06-4E45-A22E-57C301FE46E8</title><path d="M25 0C11.211 0 0 11.212 0 25c0 13.789 11.211 25 25 25s25-11.211 25-25C50 11.212 38.789 0 25 0zm0 3.125C37.1 3.125 46.875 12.9 46.875 25S37.1 46.875 25 46.875 3.125 37.1 3.125 25 12.9 3.125 25 3.125zm-9.375 12.5c-2.57 0-4.687 2.117-4.688 4.688 0 2.57 2.118 4.687 4.688 4.687s4.687-2.117 4.688-4.688c0-2.57-2.118-4.687-4.688-4.687zm18.75 0c-2.57 0-4.687 2.117-4.688 4.688 0 2.57 2.118 4.687 4.688 4.687s4.687-2.117 4.688-4.688c0-2.57-2.118-4.687-4.688-4.687zm-18.75 3.125a1.54 1.54 0 0 1 1.563 1.563 1.54 1.54 0 0 1-1.563 1.562 1.54 1.54 0 0 1-1.563-1.563 1.54 1.54 0 0 1 1.563-1.562zm18.75 0a1.54 1.54 0 0 1 1.563 1.563 1.54 1.54 0 0 1-1.563 1.562 1.54 1.54 0 0 1-1.563-1.563 1.54 1.54 0 0 1 1.563-1.562zm-9.467 13.452a18.746 18.746 0 0 0-13.452 5.78l2.259 2.16a15.649 15.649 0 0 1 11.206-4.815 15.625 15.625 0 0 1 11.26 4.706l2.235-2.179a18.722 18.722 0 0 0-13.508-5.652z" fill="#FE0000" fill-rule="evenodd"/></svg>