<svg xmlns="http://www.w3.org/2000/svg" width="217" height="244" viewBox="0 0 217 244">
    <g fill="none" fill-rule="evenodd">
        <g fill="#B10621">
            <path d="M64.503 241.988v-29.304H9.113v-26.539l40.11-140.988h29.469L36.944 186.145h27.56v-56.118h27.83v56.118h13.371v26.54h-13.37v29.303zM161.132 121.095h-28.09v-7.664-27.859c0-6.625 1.141-12.515 3.423-17.668 2.281-5.153 5.338-9.57 9.171-13.25 3.833-3.681 8.259-6.488 13.278-8.42 5.02-1.933 10.267-2.899 15.742-2.899 5.476 0 10.723.966 15.742 2.899 5.02 1.932 9.446 4.739 13.278 8.42 3.833 3.68 6.89 8.097 9.172 13.25 2.281 5.153 3.422 11.043 3.422 17.668v35.523h-28.09v-6.506-28.94c0-4.044-1.262-7.398-3.786-10.063-2.525-2.665-5.77-3.997-9.738-3.997-3.967 0-7.213 1.332-9.737 3.997-2.525 2.665-3.787 6.02-3.787 10.063v35.446zm0 52.853v26.94c0 4.044 1.262 7.398 3.787 10.063 2.524 2.665 5.77 3.998 9.737 3.998 3.967 0 7.213-1.333 9.738-3.998 2.524-2.665 3.787-6.019 3.787-10.062v-26.942h28.089v27.018c0 6.626-1.14 12.515-3.422 17.668-2.282 5.153-5.339 9.57-9.172 13.251-3.832 3.68-8.258 6.487-13.278 8.42-5.019 1.932-10.266 2.898-15.742 2.898-5.475 0-10.723-.966-15.742-2.898-5.019-1.933-9.445-4.74-13.278-8.42-3.833-3.68-6.89-8.098-9.171-13.25-2.282-5.154-3.422-11.043-3.422-17.669v-27.018h28.089z"/>
        </g>
        <path fill="#E21838" d="M55.39 241.988v-29.304H0v-26.539L40.11 45.157h29.47L27.831 186.145H55.39v-56.118h27.831v56.118h13.37v26.54h-13.37v29.303zM152.02 121.095h-28.09v-7.664-27.859c0-6.625 1.14-12.515 3.422-17.668 2.282-5.153 5.339-9.57 9.172-13.25 3.832-3.681 8.258-6.488 13.278-8.42 5.019-1.933 10.266-2.899 15.742-2.899 5.475 0 10.723.966 15.742 2.899 5.019 1.932 9.445 4.739 13.278 8.42 3.833 3.68 6.89 8.097 9.171 13.25 2.282 5.153 3.422 11.043 3.422 17.668v35.523h-28.089v-6.506-28.94c0-4.044-1.262-7.398-3.787-10.063-2.524-2.665-5.77-3.997-9.737-3.997-3.967 0-7.213 1.332-9.738 3.997-2.524 2.665-3.787 6.02-3.787 10.063v35.446zm0 52.853v26.94c0 4.044 1.262 7.398 3.786 10.063 2.525 2.665 5.77 3.998 9.738 3.998 3.967 0 7.213-1.333 9.737-3.998 2.525-2.665 3.787-6.019 3.787-10.062v-26.942h28.09v27.018c0 6.626-1.141 12.515-3.423 17.668-2.281 5.153-5.338 9.57-9.171 13.251-3.833 3.68-8.259 6.487-13.278 8.42-5.02 1.932-10.267 2.898-15.742 2.898-5.476 0-10.723-.966-15.742-2.898-5.02-1.933-9.446-4.74-13.278-8.42-3.833-3.68-6.89-8.098-9.172-13.25-2.281-5.154-3.422-11.043-3.422-17.669v-27.018h28.09z"/>
        <text fill="#E21838" font-family="SFProText-Bold, SF Pro Text" font-size="30.375" font-weight="bold" transform="translate(0 43.335)">
            <tspan x="122.108" y="116.48">TRIỆU</tspan>
        </text>
        <text fill="#E21838" font-family="SFProText-Bold, SF Pro Text" font-size="32.4" font-weight="bold">
            <tspan x="27.54" y="31">Vay lên đến</tspan>
        </text>
    </g>
</svg>
