<svg xmlns="http://www.w3.org/2000/svg" width="24" height="23" viewBox="0 0 24 23">
    <g fill="none" fill-rule="evenodd">
        <path d="M-2.933-3.556h29.866v29.867H-2.933z"/>
        <path fill="#FFF" d="M5.205 2.667c.075 1.107.262 2.19.56 3.223L4.272 7.383a18.45 18.45 0 0 1-.946-4.716h1.88zm12.27 14.958a15.87 15.87 0 0 0 3.236.56v1.854a19.197 19.197 0 0 1-4.729-.933l1.494-1.481zM6.4.178H2.044C1.36.178.8.738.8 1.422c0 11.686 9.47 21.156 21.156 21.156.684 0 1.244-.56 1.244-1.245V16.99c0-.684-.56-1.244-1.244-1.244-1.544 0-3.05-.25-4.443-.71a1.045 1.045 0 0 0-.386-.062c-.323 0-.635.125-.883.361l-2.738 2.738a18.852 18.852 0 0 1-8.201-8.201l2.738-2.738c.348-.348.448-.834.31-1.27a14.137 14.137 0 0 1-.709-4.442C7.644.738 7.084.178 6.4.178z"/>
    </g>
</svg>
