<svg xmlns="http://www.w3.org/2000/svg" width="269" height="38" viewBox="0 0 269 38">
    <g fill="#000" fill-rule="evenodd">
        <path d="M17.248 2.584l-.134-.034.134-.2.1.033-.1.2zm-.335.838h-.134l.134-.436h.134l-.134.436zM2.244 15.919c0-.101 0-.168-.033-.168-.034 0-.034-.034-.034-.067 0 .2-.034.402-.1.603-.068.2-.101.402-.134.603.066-.167.134-.335.2-.536.068-.201.101-.369.101-.47v.035zm-.603 1.809c-.033.234-.067.469-.1.67.067-.201.134-.436.167-.67.034-.235.067-.47.1-.67-.066.2-.133.435-.167.67zm-.904 2.981l-.1.37H.77l.067-.37h-.1zm-.2 1.307v-.536l-.102.402c-.033.134-.066.235-.066.301l.234-.167H.536zm-.236.402l-.133.2.133.068.068-.2-.068-.068zM20.798 2.752c0 .033-.067.167-.167.368-.1.2-.234.435-.368.737-.134.302-.268.603-.436.905-.167.3-.301.57-.402.804-.1.234-.2.536-.335.904-.134.369-.234.704-.335 1.005-.067.1-.1.235-.1.402 0 .168 0 .302-.034.436-.134.402-.301.905-.535 1.508-.235.603-.335 1.14-.335 1.574 0 .034 0 .067-.034.134l-.134.235a8.16 8.16 0 0 0-.301 1.876 7.2 7.2 0 0 0-.302.905c-.1.368-.133.603-.133.704 0 .1-.034.3-.101.602s-.134.57-.201.805c0 .033.034.1.1.2-.033.369-.1.805-.2 1.307-.101.502-.201.938-.269 1.34-.066.067-.1.1-.1.067s-.034 0-.067.067c0 .034 0 .034.033.034 0 .033.034.033.068.033-.034.201-.068.402-.1.604-.034.2-.102.401-.202.602 0 .034.034.101.134.201-.134.905-.234 1.776-.335 2.58-.1.804-.167 1.776-.234 2.881-.1.101-.235.202-.369.302a.622.622 0 0 1-.368.134h-.837c-.067 0-.135-.033-.235-.1a1.35 1.35 0 0 0-.301-.168 3.607 3.607 0 0 1-.804-.603c-.235-.235-.469-.469-.703-.67-.134-.1-.268-.268-.402-.47-.134-.2-.201-.368-.235-.535-.134-.369-.268-.838-.435-1.407-.168-.57-.335-1.073-.536-1.508.034-.034.067-.067.067-.1-.134-.134-.234-.369-.335-.704-.1-.335-.167-.603-.234-.77.033-.034.033-.101 0-.202-.034-.1-.067-.167-.101-.167a.252.252 0 0 1 0-.302c-.167-.502-.368-1.038-.57-1.608-.2-.57-.367-1.072-.502-1.541-.2-.704-.401-1.441-.636-2.178a44.91 44.91 0 0 1-.636-2.278l-.1-.1c-.034-.034-.068-.068-.135-.101l-.1.033c-.201.938-.436 1.91-.704 2.949a63.556 63.556 0 0 1-.803 2.848 1.85 1.85 0 0 1-.134.234.568.568 0 0 1-.201.201c-.168.436-.302.871-.436 1.34-.133.47-.268.905-.402 1.34-.033.034-.067.068-.1.068s-.067.033-.1.066c-.034.235-.067.436-.135.603-.066.168-.1.369-.133.604-.034.066-.067.134-.1.167-.034.033-.068.1-.101.168a15.524 15.524 0 0 1-.536 1.842 3.537 3.537 0 0 0-.235 1.508c.034.134.034.335.034.603 0 .268.067.435.2.469-.1.1-.2.1-.267 0-.067.1-.1.167-.134.235-.034.067-.1.1-.2.1-.102 0-.202 0-.302.033-.101.034-.202.034-.302.034-.1 0-.167-.034-.234-.134a.304.304 0 0 0-.268-.134h-.1s-.034.033-.101.067a8.733 8.733 0 0 0-.402-.703c-.167-.269-.335-.537-.502-.838.067-.1.1-.167.067-.201-.034-.134-.067-.335-.134-.57A2.321 2.321 0 0 1 0 23.96c0-.1.033-.301.1-.57.068-.267.135-.469.201-.636.034-.234.068-.469.068-.703 0-.235.033-.503.1-.77.301-1.14.636-2.313.971-3.485.335-1.173.703-2.346 1.072-3.485v-.502c.2-.905.435-1.81.703-2.714.268-.905.536-1.843.77-2.78.134-.437.302-.972.47-1.609.167-.637.335-1.24.502-1.776.033-.1.067-.201.067-.335s0-.268-.034-.368c-.033-.1-.033-.201-.033-.302 0-.1 0-.234-.034-.369.168-.435.335-.737.536-.904.201-.168.402-.335.57-.47l.3.068c.202-.202.37-.302.503-.302.101 0 .201.034.268.067s.168.1.268.168c.1.033.235.033.369.033s.268.034.401.068c.134.066.268.167.402.335.134.167.235.3.302.435.033.1.033.201 0 .335-.034.134-.034.234 0 .302 0 .267 0 .502-.034.737l-.1.703c-.034.201 0 .436.134.67.134.235.234.47.268.704v.234c0 .134.033.235.067.302.2.704.435 1.44.67 2.178.234.736.469 1.474.67 2.177l.803 3.116c.302 1.173.603 2.245.904 3.217.034.033.068.1.134.167.067.067.134.134.202.235a.812.812 0 0 0 .3-.47c.035-.167.068-.334.135-.502-.067.168-.1.368-.134.57a2.03 2.03 0 0 0 0 .636c.134-.536.268-1.072.368-1.608.1-.536.235-1.039.402-1.474l1.876-7.807c.133-.368.268-.636.401-.77.134-.134.168-.335.134-.603.168-.302.302-.67.403-1.14.1-.468.267-.77.468-.937.101-.37.235-.738.369-1.106.134-.369.301-.77.469-1.173-.034-.033-.067-.033-.1 0-.035.034-.068.067-.068.134 0-.134.067-.268.168-.368 0 .1.033.167.1.2.067-.066.1-.2.1-.368 0-.234-.067-.402-.2-.502.2.033.402.033.569 0 .167-.034.368-.034.603 0 .1-.068.134-.134.134-.202-.067-.1-.168-.1-.335-.033l.335-.067c.134.067.234.1.335.067.1-.033.2.033.301.201.034 0 .067-.034.1-.067.034-.033.068-.1.101-.167.1.167.134.335.134.502.067.034.134.067.201.134s.134.101.234.134c0 .168.034.268.101.335l.2.201.202.201c.067.067.1.134.1.235l-.268.436zM24.664 17.29c-.067-.065-.067-.13-.034-.196.034-.066.067-.131.067-.164a16.739 16.739 0 0 0-1.616 2.229c-.506.82-.944 1.606-1.348 2.36l.202.23c.54-.624 1.045-1.378 1.516-2.23.472-.852.943-1.672 1.449-2.458l-.236.23zm8.354 5.474c-.034.131-.134.23-.303.328-.169.098-.27.197-.303.295-.168.164-.202.328-.101.492a3.998 3.998 0 0 1-.54.524c-.235.197-.471.394-.707.557 0 .033.034.066.101.131.068.066.135.099.169.099-.169.032-.37.098-.573.229l-.64.393c-.202.132-.404.23-.573.328-.168.099-.27.131-.336.131h-1.415c-.337 0-.674-.13-1.01-.425a4.717 4.717 0 0 1-.843-.984c-.236-.36-.438-.688-.573-1.016-.134-.328-.202-.525-.202-.557v-.754c0-.295-.034-.59-.067-.885-.169.295-.337.59-.54.852-.201.262-.403.557-.606.885-.1.13-.269.36-.505.689-.235.327-.505.655-.808.983a7.902 7.902 0 0 1-.943.885c-.337.262-.607.393-.843.393-.1 0-.202.033-.337.065-.134.033-.235.066-.336.066-.573 0-.977-.131-1.247-.393-.27-.263-.573-.525-.876-.787-.033-.13-.067-.295-.135-.524-.067-.23-.1-.394-.1-.492 0-.491.134-1.115.437-1.868a27.338 27.338 0 0 1 2.358-4.523c.438-.689.809-1.213 1.112-1.574.101-.164.303-.36.573-.622.27-.263.539-.46.775-.623.168-.066.337-.197.505-.361.168-.164.337-.328.505-.459.034-.032.034-.098 0-.164-.034-.065-.034-.13 0-.163.169-.066.303-.099.404-.099a.552.552 0 0 0 .304-.098c.168-.099.303-.263.404-.46h.27c.235.197.437.296.606.296.1 0 .202 0 .303.033.101.032.202.032.303.032.202-.229.303-.393.27-.491-.034-.099.067-.164.303-.164.101 0 .168.033.168.131s.068.131.169.131c.134 0 .168-.033.134-.065-.033-.033 0-.066.102-.066.202 0 .471.066.808.197.337.13.573.262.707.426.034.098.101.23.169.393.067.164.067.295 0 .36 0 .066.033.066.067 0 .034-.065.068-.032.068.099 0 .066-.034.23-.102.492a9.356 9.356 0 0 1-.303.917c-.134.361-.236.755-.336 1.147-.102.394-.169.754-.236 1.05-.101.426-.202.917-.304 1.507-.1.59-.168 1.147-.235 1.672-.068.524-.101.983-.135 1.377-.034.393-.034.622-.034.655 0 .098.034.262.068.492.033.23.067.426.067.59a.893.893 0 0 0 .505.032c.169-.032.337-.065.472-.065.135 0 .438-.099.875-.262.438-.164.91-.361 1.416-.59.505-.23.976-.427 1.414-.623.438-.197.674-.295.708-.328l-.472.131z"/>
        <path d="M43.52 15.237c.033.1.033.364 0 .795-.033.43-.133.794-.267 1.092.067.165.1.33.067.53-.033.198-.067.364-.1.529-.033.232-.1.496-.233.761s-.2.53-.233.828v.231c0 .1 0 .199-.033.298-.167.762-.333 1.523-.533 2.317-.2.795-.367 1.556-.533 2.284l-.234.232-.7 2.88c-.232.96-.432 1.92-.598 2.88-.034.099-.034.264 0 .496.033.232.033.43 0 .596-.067.1-.134.198-.167.297l-.1.298c0 .232 0 .497-.033.795-.034.298-.067.595-.1.86a17.4 17.4 0 0 1-.1.696c-.034.198-.034.33 0 .397l.033.496c.067.033.1.066.1.1 0 .033.067.033.2.033.266-.033.5-.133.733-.299l.7-.496.132 1.126a.593.593 0 0 0-.333.298.873.873 0 0 0-.1.397v.298c0 .1-.033.165-.133.198-.1 0-.133 0-.1-.033.034-.033 0-.033-.1-.033-.133.033-.266.1-.4.199a1.25 1.25 0 0 1-.333.198c-.1 0-.266-.066-.5-.165a7.52 7.52 0 0 0-.499-.2c-.1-.032-.2-.131-.3-.297-.1-.165-.2-.298-.266-.397-.167-.232-.367-.563-.633-.993-.266-.43-.4-.827-.433-1.224-.067-.729-.067-1.623.033-2.682.1-1.06.233-2.184.433-3.343.2-1.158.4-2.35.633-3.541.233-1.192.467-2.284.7-3.277.233-.993.433-1.854.633-2.582.2-.729.333-1.225.4-1.457l-.034-.033c0-.033 0-.066-.033-.099-.9 1.092-1.766 2.119-2.598 3.111a71.262 71.262 0 0 1-2.765 3.078c-.167.166-.467.398-.9.663s-.766.397-.999.43c-.366.033-.666-.033-.9-.198a2.178 2.178 0 0 1-.599-.63 4.038 4.038 0 0 1-.4-.86 4.617 4.617 0 0 1-.2-.795c-.033-.397.067-.992.3-1.754.234-.761.5-1.556.8-2.35.3-.794.6-1.523.866-2.151.266-.63.466-1.026.566-1.192.2-.298.4-.629.6-.993.2-.364.433-.728.666-1.059.2-.066.4-.066.6-.033.2.033.4.1.566.232.166.132.3.264.4.43.1.165.166.297.166.397.033.232.033.364.033.397a2.855 2.855 0 0 0-.4.728c-.132.331-.266.63-.399.927-.233.53-.5 1.159-.8 1.887-.3.728-.6 1.423-.899 2.118-.067.1-.133.166-.2.232-.066.066-.1.165-.133.264a.978.978 0 0 0-.067.332c0 .132 0 .265.034.43l7.361-8.738c.566.198 1.033.364 1.4.496.366.133.632.298.832.496.2.2.367.43.466.663.1.232.167.563.2.96l-.233.198zM60.472 1.365c.034.132.034.198-.034.23a.262.262 0 0 0-.136.133c.17.33.204.76.102 1.287-.102.528-.17.891-.204 1.122-.136.594-.306 1.287-.51 2.112-.205.825-.41 1.65-.613 2.508a43.25 43.25 0 0 1-.715 2.64c-.272.892-.51 1.75-.748 2.542-.102.429-.238.891-.442 1.386a21.1 21.1 0 0 0-.579 1.551l.136.132c.204-.198.409-.33.647-.396.238-.066.476-.132.748-.165.443-.033.885 0 1.327.132.443.132.85.297 1.225.528.374.231.68.528.952.891.273.363.443.76.477 1.188.034.1 0 .363-.068.792-.068.43-.136.825-.238 1.189-.102.23-.238.56-.408.99-.17.428-.307.791-.443 1.088-.102.132-.238.364-.442.727-.204.363-.442.726-.714 1.122-.273.396-.511.726-.749 1.023-.238.297-.408.462-.51.495-.102 0-.136-.033-.102-.1.033-.065 0-.098-.137-.098-.102.033-.238.132-.408.297-.17.165-.34.264-.51.297l.068-.033v-.099c-.102-.033-.204-.066-.306-.132-.102-.066-.205-.1-.307-.066-.136.033-.17.066-.136.099s0 .066-.102.099a.394.394 0 0 1-.272-.1l-.204-.23c-.034-.033-.102-.132-.238-.264-.137-.132-.272-.297-.408-.462a3.103 3.103 0 0 1-.34-.562 1.075 1.075 0 0 1-.137-.461c-.034-.132 0-.33.102-.627.102-.298.204-.462.272-.528.17.099.273.197.307.297l.102.297c.034.099.068.165.102.198.034.033.136.033.272.033.102-.033.238-.166.408-.363.17-.198.34-.43.51-.693.17-.265.34-.561.51-.858.17-.297.273-.528.34-.694.24-.429.443-.957.614-1.551.17-.594.34-1.089.51-1.518l-.068-.429c-.102 0-.204.1-.272.264a.775.775 0 0 1-.34.396c-.307.165-.545.33-.715.528-.17.198-.272.396-.34.627-.068.033-.102.033-.136 0-.034-.033-.069-.033-.136-.033.033.132 0 .297-.137.496-.136.197-.271.428-.442.66l-.51.692c-.17.232-.272.43-.34.594.102.133.204.133.306-.032-.136.099-.272.23-.442.429-.17.198-.307.297-.409.33-.136.033-.34.033-.612 0-.272-.033-.443-.033-.545 0-.102 0-.238-.1-.408-.33-.17-.231-.34-.496-.51-.793a8.735 8.735 0 0 1-.409-.792l-.17-.363c-.034-.164 0-.462.103-.89.102-.43.204-.859.34-1.287.136-.43.272-.826.374-1.189.102-.363.17-.56.17-.594.34-1.089.714-2.277 1.089-3.564.374-1.287.782-2.574 1.19-3.894.409-1.32.783-2.607 1.157-3.828.375-1.222.715-2.344 1.021-3.334.102-.33.204-.726.306-1.155.102-.43.273-.825.477-1.188.136-.066.306-.1.476-.1h.408c.068-.032.17 0 .306.133l.409.396c.136.132.272.264.374.396l.17.198-.306.231zM69.497 17.396c-.067-.068-.067-.135-.033-.202.033-.067.067-.134.067-.167a17.138 17.138 0 0 0-1.617 2.283 45.47 45.47 0 0 0-1.348 2.417l.202.235c.54-.638 1.045-1.41 1.516-2.283.472-.873.944-1.713 1.45-2.518l-.237.235zm-.404 11.785a3.261 3.261 0 0 0-.37 1.007 3.175 3.175 0 0 1-.371 1.04c-.135 0-.27 0-.506.034-.235.067-.404.067-.505.067-.135 0-.27-.1-.505-.201a2.146 2.146 0 0 0-.54-.235c.035-.202 0-.37-.066-.571-.068-.201-.169-.403-.236-.57-.101-.202-.236-.437-.337-.706 0-.201.135-.47.404-.772.27-.302.472-.57.573-.739.202.101.438.168.707.202.27.067.505.067.674.067 0 .033.101.1.202.168.135.1.27.134.438.134 0 .034.034.101.067.269.034.134 0 .269-.1.336.033.1.1.2.202.268.134.067.235.134.37.235l-.1-.033zm8.758-6.178c-.033.134-.134.235-.303.336-.168.1-.27.2-.303.302-.168.168-.202.335-.1.503a4.045 4.045 0 0 1-.54.538c-.236.201-.472.403-.707.57 0 .034.033.068.1.134.068.068.135.101.17.101-.17.034-.371.1-.573.235l-.64.403c-.203.135-.405.235-.573.336-.169.1-.27.134-.337.134H72.63c-.337 0-.674-.134-1.01-.436a4.803 4.803 0 0 1-.843-1.008c-.235-.369-.437-.705-.572-1.04-.135-.336-.203-.538-.203-.571v-.772c0-.302-.033-.605-.067-.906-.168.301-.337.604-.539.872-.202.269-.404.571-.606.907-.101.134-.27.37-.506.705a10.55 10.55 0 0 1-.808 1.007 7.982 7.982 0 0 1-.943.907c-.337.268-.606.402-.842.402-.101 0-.202.034-.337.068-.135.033-.236.067-.337.067-.573 0-.977-.135-1.246-.403-.27-.269-.573-.537-.876-.806-.034-.134-.068-.302-.135-.537-.067-.235-.101-.403-.101-.504 0-.503.135-1.141.438-1.914A28.173 28.173 0 0 1 65.455 18c.438-.705.808-1.242 1.111-1.611.102-.168.304-.37.573-.638.27-.27.54-.47.775-.638.168-.067.337-.202.505-.37.169-.167.337-.336.505-.47.034-.033.034-.1 0-.168-.033-.067-.033-.134 0-.167.17-.068.304-.101.405-.101a.543.543 0 0 0 .303-.1c.168-.102.303-.27.404-.471h.27c.236.201.438.302.606.302.101 0 .202 0 .303.034a.95.95 0 0 0 .303.033c.202-.235.304-.402.27-.503-.034-.101.067-.168.303-.168.101 0 .169.033.169.134s.067.135.168.135c.135 0 .168-.034.135-.067-.034-.034 0-.068.1-.068.203 0 .472.068.81.202.336.134.572.268.707.436.033.1.1.235.168.403.067.168.067.302 0 .37 0 .067.034.067.067 0 .034-.068.068-.034.068.1 0 .067-.034.235-.101.504-.068.268-.169.57-.303.94-.135.37-.236.772-.337 1.175-.101.403-.169.772-.236 1.074-.1.437-.202.94-.303 1.545-.101.604-.169 1.175-.236 1.712-.068.537-.101 1.007-.135 1.41s-.034.638-.034.672c0 .1.034.268.068.503.033.235.067.437.067.605a.873.873 0 0 0 .506.033c.168-.033.336-.067.471-.067.135 0 .438-.1.876-.269.438-.167.91-.37 1.415-.604.505-.235.977-.436 1.415-.638.438-.201.673-.302.707-.335l-.472.134z"/>
        <path d="M84.32 15.253l-.228.034.033.168.228-.034-.032-.168zm5.462 6.977c-.131.236-.197.472-.23.708-.032.034-.032.101 0 .168.033.068.033.101 0 .135a.45.45 0 0 1-.13.101c-.065.034-.098.101-.131.169a.605.605 0 0 0 .262.067l-.033.034c-.065.068-.098.101-.13.068a.39.39 0 0 0-.1.27c0 .1-.064.201-.163.302.033.102.066.203.066.304 0 .101.033.202.098.303-.098.101-.196.169-.294.236a.491.491 0 0 0-.196.304c-.098.168-.262.303-.49.438-.23.134-.393.27-.524.438-.098.033-.196.135-.327.303-.131.169-.196.304-.229.405-.229.033-.458.033-.72 0-.261-.034-.457-.067-.555-.067-.098 0-.23-.034-.426-.102a3.687 3.687 0 0 1-.653-.303 4.594 4.594 0 0 1-.589-.405c-.163-.135-.262-.235-.294-.303-.229-.506-.458-1.011-.654-1.55a7.456 7.456 0 0 1-.393-1.585c-.098-.337-.13-.809-.13-1.382 0-.573 0-1.112-.033-1.618-.033-.033-.033-.067 0-.1.032-.035.032-.068 0-.102a24.771 24.771 0 0 0-1.374 1.82 35.09 35.09 0 0 1-1.438 1.921c-.033.034-.033.102 0 .236l-.49.91c-.164.304-.36.573-.59.843-.163.203-.36.438-.62.708-.262.27-.426.404-.524.438-.098 0-.196-.067-.294-.168-.099-.101-.196-.135-.295-.101-.13 0-.163 0-.098.033.066.034.033.034-.065.034-.196.034-.36-.034-.49-.202a1.89 1.89 0 0 1-.295-.573 4.132 4.132 0 0 1-.163-.607c-.033-.202-.066-.303-.099-.337a.561.561 0 0 1-.196-.202c-.065-.101-.098-.236-.13-.405 0-.1.032-.37.13-.809.099-.438.164-.842.196-1.18a2.72 2.72 0 0 0 .262-.539c.065-.202.131-.37.164-.54.065-.235.097-.505.097-.808 0-.303.033-.573.099-.81.294-.909.654-1.988 1.08-3.235.424-1.247.849-2.46 1.274-3.64v-.708c.164-.135.327-.27.49-.438.164-.169.328-.27.458-.304l.295.304c.098.1.196.236.294.404a.388.388 0 0 0 .098-.27c0-.1 0-.202-.032-.303.098.101.228.202.36.303.13.102.293.17.457.203 0 .1 0 .202-.033.303-.032.101 0 .202.065.304h.099s.033-.034.098-.068l.033.371c.032.101 0 .202-.066.337-.065.135-.13.27-.164.438-.032.304-.065.64-.097 1.045a10.01 10.01 0 0 1-.164 1.113.643.643 0 0 1-.065.269l-.131.202a3.96 3.96 0 0 0-.196 1.484 3.31 3.31 0 0 0 .392-.506c.131-.203.294-.404.49-.607.197-.202.36-.404.524-.607.163-.202.327-.337.49-.404.164-.067.327-.101.49-.101.164 0 .36-.067.557-.169.098.102.196.169.261.236.066.068.13.135.164.236.098-.033.163-.067.229-.101.065-.034.163-.067.261-.101.098 0 .23.067.393.236.163.168.327.303.458.404v.034c0 .034-.033.067-.066.1 0 .035.033.069.098.102.065.034.098.034.131.034.196.404.36.674.458.809.098.135.163.27.196.371.033.1.033.168.033.236 0 .067 0 .202.033.438.032.034.032.236.032.573V19.6c0 .438 0 .877-.032 1.348a7.404 7.404 0 0 0 0 1.214c-.033.27-.033.573 0 .876.032.303.065.64.097.978.099.067.23.1.393.067.13 0 .294-.067.49-.169.196-.1.393-.202.589-.337.196-.135.425-.27.654-.404.229-.135.392-.236.49-.27h-.032c-.066 0-.098.034-.066.068l-.032.067h.13c.098-.034.262-.135.491-.337.23-.202.458-.371.687-.506l-.425.034zM110.733 22.896c-.235.23-.605.494-1.109.79v.065c0 .033.034.066.067.099.135-.099.269-.164.404-.164a.913.913 0 0 0 .403-.1c-.135.066-.236.198-.303.395a1.212 1.212 0 0 1-.268.461.706.706 0 0 1-.336.198.474.474 0 0 0-.303.262c-.067.033-.1.132-.1.264a.95.95 0 0 1-.068.33 1.178 1.178 0 0 0-.403.328 2.875 2.875 0 0 1-.572.493c.101.099.168.132.202.132a6.624 6.624 0 0 0-.605.329c-.269.164-.47.23-.605.23-.1 0-.302-.033-.571-.066-.269-.032-.47-.065-.605-.065-.033 0-.1-.033-.235-.1-.134-.065-.269-.164-.403-.262l-.404-.296c-.134-.099-.201-.165-.235-.198-.034-.099-.1-.23-.168-.395-.067-.164-.134-.296-.235-.395a1.193 1.193 0 0 0-.235-.46 2.632 2.632 0 0 1-.303-.46 8.251 8.251 0 0 1-.403-2.14c-.034-.36-.034-.723-.034-1.052 0-.329.034-.69.101-1.053l-.067-.46c-.974.625-1.815 1.612-2.554 2.96-.74 1.35-1.546 2.403-2.42 3.16v.032c0 .033.034.033.101.033H98.232c-.1 0-.202.033-.336.099a5.98 5.98 0 0 0-.437.23 5.624 5.624 0 0 0-.302-.46 5.453 5.453 0 0 1-.303-.461 1.137 1.137 0 0 1-.201-.46c-.034-.165-.135-.33-.303-.494 0-.23-.033-.527-.1-.855-.068-.33-.101-.56-.101-.691 0-.362.1-1.086.269-2.205.168-1.118.369-2.04.604-2.73.235-.691.437-1.316.639-1.843.201-.526.302-.79.302-.822 0-.165.034-.33.101-.494.067-.164.134-.329.168-.46.1-.1.168-.165.202-.23.1-.428.235-.922.437-1.48.201-.56.403-1.054.57-1.481.068-.198.068-.363-.033-.527.101-.33.236-.724.404-1.151.168-.428.336-.889.503-1.35.168-.46.37-.92.572-1.348.201-.428.37-.823.504-1.184.235-.494.437-.889.605-1.185.168-.296.47-.428.907-.428.135 0 .269.033.437.132a.824.824 0 0 0 .437.131c.067.132.134.198.168.198.134.23.235.526.269.921.033.395.067.658.067.822 0 .1-.034.264-.067.527-.034.263-.101.46-.202.625l-4.738 12.6c.168 0 .336-.098.47-.296a3.21 3.21 0 0 1 .37-.46c.134-.165.336-.33.571-.526.235-.198.437-.362.571-.527.034-.066.202-.23.47-.494.27-.263.539-.559.841-.888.303-.329.605-.625.874-.888s.437-.394.537-.394c.101 0 .202.065.27.164a.52.52 0 0 0 .268.197c.134.033.302.033.504.033s.403.033.572.131c.605.428.974.856 1.142 1.284.168.427.235.855.235 1.316l-.571 4.638a1.535 1.535 0 0 0 .235.888c.202-.065.336-.098.37-.065.033.033.1.033.201.033.068 0 .202-.033.404-.132.201-.099.436-.197.705-.329.27-.131.538-.263.807-.361.269-.1.47-.165.605-.198.168-.033.336-.066.504-.132l.504-.197v.362z"/>
        <path d="M115.488 16.179h.17v-.503h-.17v.503zm.819 1.575c0-.134-.034-.335-.137-.603a4.302 4.302 0 0 0-.306-.67c-.17.368-.41.737-.716 1.14-.307.402-.546.703-.717.938l-.613 1.207c-.239.47-.478.905-.716 1.341-.239.436-.41.838-.546 1.173-.136.336-.204.537-.204.57v.302c.239-.167.511-.369.818-.637.307-.268.512-.402.614-.402.102 0 .102.033 0 .1s-.069.101.068.101c.102 0 .239-.134.409-.369.17-.234.341-.502.512-.77.17-.269.34-.537.511-.772.17-.235.273-.369.307-.402.034-.067.102-.235.204-.47.102-.234.205-.502.307-.77.103-.27.17-.504.239-.705.068-.201.102-.335.102-.369l-.136.067zm2.966 1.006c0 1.24-.443 2.447-1.295 3.655-.853 1.207-1.91 2.347-3.172 3.42-.068.033-.102.1-.136.2-.034.101-.068.202-.102.269-.784.47-1.5.704-2.148.704-.512 0-.92-.134-1.262-.402l-1.022-.805c-.103-.1-.205-.302-.307-.604-.103-.301-.24-.435-.444-.435l-.17-.772c-.069-.3-.103-.502-.103-.603 0-.37.068-.805.205-1.307a18.745 18.745 0 0 1 .989-2.716c.17-.369.307-.604.409-.738.034-.033.068-.134.068-.268s.034-.235.102-.302c.103-.201.24-.402.41-.604.17-.2.306-.402.409-.603.068-.033.102-.067.136-.067.034 0 .068 0 .136-.033a.184.184 0 0 0 .103-.168.53.53 0 0 1 .102-.268c.102-.168.239-.302.41-.403.17-.1.306-.234.408-.402a.56.56 0 0 0 .103-.335.67.67 0 0 1 .102-.37c-.034 0-.102-.033-.205-.066-.102-.033-.17 0-.238.1 0-.1-.034-.167-.068-.2-.069.033-.102.133-.102.268 0-.168-.069-.235-.24-.235l.069-.034c.034 0 .068-.033.136-.1-.034-.302.068-.57.273-.805.204-.234.477-.436.784-.603a5.5 5.5 0 0 1 .92-.403c.308-.1.512-.201.615-.301.102.167.204.234.34.2.137-.033.307 0 .478.101.102.067.273.201.511.436l.58.57c0 .034.034.067.068.134a.54.54 0 0 0 .102.201c.034.034.103.034.17.034.07 0 .137.034.171.067.512.704.955 1.408 1.296 2.078.341.67.512 1.375.512 2.08l-.103.435zM129.582 10.534c0 .134-.034.269-.068.403a.873.873 0 0 0-.067.502h-.337c-.1 0-.236.034-.303.034-.202.034-.236.101-.067.168-.169-.033-.37-.1-.573-.168-.27-.1-.472-.234-.64-.369-.472-.402-.91-.905-1.617-1.543-.64-.637-1.381-1.207-2.089-1.811-.034-.033-.034-.1-.1-.235-.102-.1-.136-.235-.17-.37-.033-.066 0-.234.034-.368a.258.258 0 0 0-.033-.335c.168 0 .235-.034.269-.067-.067-.101-.1-.168-.236-.202-.067 0-.134-.067-.202-.134l-.067-.402a.588.588 0 0 1 .404-.034c.067.034.135.067.236.067.067 0 .168-.033.202-.1a.73.73 0 0 0 .27-.168l.202.201c.134.1.337.1.505.1.067 0-.135.101-.068.034.102-.067.17-.1.27-.1.068.033.068.067.101.1-.033.034-.033.1 0 .168.067.067.202.167.404.302.169.1.304.235.405.369.37.302.74.704 1.246 1.14.472.437.842.872 1.213 1.376a.383.383 0 0 1 .101.234c.034.067.034.168.067.269 0 .034.304-.034.506 0 .1.067.067.168.134.268 0 .067.068.168.135.302.034.067.034.168.068.268l-.135.101zm-3.908 6.541c-.067-.067-.067-.134-.034-.201.034-.067.068-.134.068-.167a17.144 17.144 0 0 0-1.617 2.28 46.13 46.13 0 0 0-1.348 2.416l.202.235c.54-.638 1.044-1.41 1.516-2.282a44.7 44.7 0 0 1 1.449-2.516l-.236.235zm8.355 5.602c-.034.134-.135.235-.303.336-.169.1-.27.201-.304.302-.168.168-.202.335-.1.503a4.072 4.072 0 0 1-.54.537c-.236.201-.472.402-.707.57 0 .033.033.067.1.134.069.067.135.1.169.1a1.6 1.6 0 0 0-.572.235l-.64.403c-.202.134-.405.235-.573.335-.169.1-.27.135-.337.135h-1.415c-.337 0-.674-.135-1.01-.436a4.774 4.774 0 0 1-.843-1.007c-.236-.369-.438-.704-.573-1.04-.134-.335-.202-.536-.202-.57v-.771c0-.302-.033-.604-.067-.906-.169.302-.337.604-.539.872s-.404.57-.606.906c-.102.134-.27.369-.506.704-.236.336-.505.671-.808 1.007a7.98 7.98 0 0 1-.944.905c-.336.268-.606.403-.842.403-.1 0-.202.033-.337.067-.134.033-.235.067-.337.067-.572 0-.976-.134-1.246-.402-.27-.269-.573-.537-.876-.806-.034-.134-.067-.302-.135-.536-.067-.235-.1-.403-.1-.503 0-.504.134-1.141.437-1.913a28.022 28.022 0 0 1 2.358-4.63c.438-.703.809-1.24 1.112-1.609.101-.168.303-.369.573-.637.27-.269.539-.47.775-.638.168-.067.336-.2.505-.369.168-.167.337-.335.505-.47.034-.033.034-.1 0-.167s-.034-.134 0-.168c.169-.067.304-.1.404-.1a.543.543 0 0 0 .304-.101c.168-.1.303-.268.404-.47h.27c.235.202.437.302.606.302a.93.93 0 0 1 .303.034c.101.033.202.033.303.033.202-.234.303-.402.27-.503-.034-.1.067-.167.303-.167.101 0 .168.033.168.134 0 .1.068.134.17.134.134 0 .167-.034.134-.067-.034-.034 0-.067.1-.067.203 0 .472.067.81.2.336.135.572.269.707.437.033.1.1.235.168.403.067.167.067.302 0 .369 0 .067.034.067.067 0 .034-.067.068-.034.068.1 0 .067-.034.235-.101.503-.068.268-.169.57-.303.94-.135.369-.236.771-.337 1.173-.101.403-.169.772-.236 1.074-.101.436-.202.94-.303 1.543-.101.604-.169 1.174-.236 1.711-.068.537-.101 1.006-.135 1.409-.033.402-.033.637-.033.67 0 .101.033.27.067.504.033.235.067.436.067.603a.869.869 0 0 0 .506.034c.168-.034.336-.067.471-.067.135 0 .438-.1.876-.268s.91-.37 1.415-.604c.505-.235.977-.436 1.415-.637.438-.202.673-.302.707-.336l-.471.134z"/>
        <path d="M140.498 15.253l-.23.034.033.168.23-.034-.033-.168zm5.46 6.977c-.13.236-.196.472-.228.708-.033.034-.033.101 0 .168.032.068.032.101 0 .135-.033.034-.066.068-.131.101-.065.034-.098.101-.13.169a.6.6 0 0 0 .26.067l-.032.034c-.066.068-.098.101-.13.068a.387.387 0 0 0-.099.27c0 .1-.065.201-.164.302.033.102.066.203.066.304 0 .101.033.202.098.303-.098.101-.196.169-.294.236a.49.49 0 0 0-.196.304c-.098.168-.262.303-.49.438-.23.134-.393.27-.524.438-.098.033-.196.135-.327.303-.131.169-.196.304-.229.405-.229.033-.458.033-.72 0-.261-.034-.457-.067-.555-.067-.098 0-.23-.034-.425-.102a3.69 3.69 0 0 1-.654-.303 4.568 4.568 0 0 1-.59-.405c-.163-.135-.26-.235-.293-.303-.23-.506-.458-1.011-.654-1.55a7.479 7.479 0 0 1-.393-1.585c-.098-.337-.13-.809-.13-1.382 0-.573 0-1.112-.033-1.618-.033-.033-.033-.067 0-.1.032-.035.032-.068 0-.102a24.873 24.873 0 0 0-1.374 1.82c-.49.708-.98 1.349-1.439 1.921-.033.034-.033.102 0 .236l-.49.91c-.164.304-.36.573-.589.843-.163.203-.36.438-.62.708-.263.27-.426.404-.524.438-.098 0-.196-.067-.294-.168-.099-.101-.196-.135-.295-.101-.13 0-.163 0-.098.033.065.034.033.034-.065.034-.197.034-.36-.034-.49-.202a1.874 1.874 0 0 1-.295-.573c-.065-.202-.131-.405-.164-.607-.032-.202-.065-.303-.098-.337a.567.567 0 0 1-.196-.202c-.065-.101-.098-.236-.13-.405 0-.1.032-.37.13-.809.098-.438.164-.842.196-1.18a2.72 2.72 0 0 0 .262-.539c.065-.202.13-.37.163-.54.066-.235.099-.505.099-.808 0-.303.033-.573.098-.81.294-.909.654-1.988 1.079-3.235.425-1.247.85-2.46 1.275-3.64v-.708c.163-.135.327-.27.49-.438.164-.169.327-.27.459-.304l.293.304c.099.1.197.236.295.404a.388.388 0 0 0 .098-.27c0-.1 0-.202-.033-.303.099.101.23.202.36.303.13.102.294.17.458.203 0 .1 0 .202-.033.303-.033.101 0 .202.065.304h.099s.032-.034.098-.068l.032.371c.033.101 0 .202-.065.337s-.131.27-.164.438c-.032.304-.065.64-.098 1.045-.032.405-.098.776-.163 1.113a.65.65 0 0 1-.066.269l-.13.202a3.953 3.953 0 0 0-.197 1.484 3.31 3.31 0 0 0 .393-.506c.13-.203.294-.404.49-.607.197-.202.36-.404.523-.607.164-.202.327-.337.491-.404.164-.067.327-.101.49-.101.164 0 .36-.067.557-.169.098.102.196.169.261.236.066.068.131.135.164.236.098-.033.163-.067.229-.101.065-.034.163-.067.261-.101.098 0 .23.067.392.236.164.168.328.303.459.404v.034c0 .034-.033.067-.066.1 0 .035.033.069.098.102a.24.24 0 0 0 .13.034c.197.404.36.674.459.809.098.135.163.27.196.371.033.1.033.168.033.236 0 .067 0 .202.032.438.033.034.033.236.033.573V19.6c0 .438 0 .877-.033 1.348a7.489 7.489 0 0 0 0 1.214 3.93 3.93 0 0 0 0 .876c.033.303.066.64.098.978.099.067.23.1.393.067.13 0 .294-.067.49-.169.196-.1.393-.202.589-.337.196-.135.425-.27.654-.404.229-.135.392-.236.49-.27h-.032c-.066 0-.098.034-.066.068l-.032.067h.13c.098-.034.262-.135.491-.337.23-.202.458-.371.687-.506l-.426.034zM170.506 17.035c0-.1-.067-.199-.235-.298-.168-.1-.236-.2-.202-.265-.067-.034-.168-.1-.303-.166-.134-.066-.235-.133-.336-.166-.1.232-.268.364-.504.397-.1 0-.168 0-.168-.033v-.066c-.37.995-.773 2.021-1.176 3.082a22.834 22.834 0 0 0-.907 2.883c.1.1.201.132.336.132l1.21-1.093c.403-.365.739-.73 1.041-1.094.135-.132.236-.298.303-.497.067-.198.134-.364.168-.497.033-.033.1-.132.202-.298.1-.166.201-.365.269-.597.067-.231.167-.463.268-.728a1.91 1.91 0 0 0 .135-.663l-.101-.033zm3.294.1a5.04 5.04 0 0 1-.202 1.689 8.034 8.034 0 0 1-.74 1.79 17.77 17.77 0 0 1-1.142 1.789c-.437.596-.908 1.16-1.412 1.722-.168.166-.37.332-.605.498-.235.165-.47.331-.74.496a4.53 4.53 0 0 1-1.512.597h-.672c-.134 0-.436-.1-.94-.332-.17-.033-.337-.165-.539-.364a1.173 1.173 0 0 0-.672-.332c-.1-.132-.201-.264-.302-.43a3.595 3.595 0 0 1-.27-.497c-.066-.431-.134-.928-.201-1.491-.067-.563-.1-.895-.134-.994a5.906 5.906 0 0 1 0-1.093c.034-.299.1-.564.201-.829s.202-.563.303-.861c.1-.298.235-.663.37-1.094.067-.066.134-.133.201-.166a.445.445 0 0 0 .134-.099c.101-.232.202-.53.27-.894-.437.033-.908.099-1.445.198-.539.1-.875.166-.976.199-.066 0-.2 0-.37.033-.167.033-.369.067-.638.1-.268.033-.537.066-.84.099a13.98 13.98 0 0 0-.74.1c-.033.132-.134.232-.302.297l-.504.2a6.812 6.812 0 0 0-.605 1.988 81.94 81.94 0 0 1-.303 1.921c0 .1-.033.166-.134.232-.1.067-.202.133-.302.232 0 .332-.034.696-.101 1.094-.067.397-.101.762-.135 1.093-.033.331-.033.63-.033.895s.067.463.202.563c-.236.166-.336.331-.336.53s-.068.398-.169.596l-.336.199a2.244 2.244 0 0 1-.403.199c-.1-.033-.202-.133-.336-.298-.134-.166-.235-.232-.303-.2-.1 0-.134 0-.067.034.067.033.034.066-.067.1-.168 0-.303-.133-.404-.398a3.823 3.823 0 0 1-.201-.696c-.034-.033-.067-.1-.101-.166a.618.618 0 0 1-.067-.265V23.197c.033-.43.1-.927.202-1.49.1-.564.201-1.06.268-1.524.068-.465.135-.895.202-1.293.067-.397.1-.629.1-.695l-.033-.332c-.37 0-.806.066-1.344.166s-1.008.166-1.445.199l-.034-.332c0-.1-.067-.132-.168-.1-.1.034-.202.034-.302.034-.169-.1-.336-.265-.538-.497-.202-.232-.303-.398-.303-.497 0-.033.068-.1.168-.199.101-.1.067-.232-.1-.397a8.37 8.37 0 0 1 .806-.497c.303-.166.572-.299.84-.398.169-.033.404-.066.706-.1.303-.033.572-.066.84-.132.168-.033.337-.1.538-.199.202-.1.37-.166.47-.198.135 0 .17 0 .135.032-.033.034 0 .034.1.034.17 0 .304-.066.37-.232.101-.298.169-.63.236-.961.067-.331.134-.63.202-.895.067-.166.168-.43.268-.762.101-.331.236-.696.37-1.06.135-.365.27-.73.403-1.127.135-.397.27-.762.404-1.126.033-.066.033-.166.033-.298 0-.133 0-.232.034-.299.235-.497.437-.96.571-1.391.135-.431.336-.828.572-1.193a.714.714 0 0 0 .1-.166c.034-.066.068-.132.135-.165a.385.385 0 0 0 .269-.1l.27-.265a1.242 1.242 0 0 0 0-.497.624.624 0 0 1 .066-.43l.437-.034c.067.033.1.133.1.265 0 .133.034.265.068.365.067.033.101.033.134.033.034 0 .068.033.101.1.068-.067.101-.133.101-.2 0-.066.034-.165.101-.265 0 .033.034.1.1.232.068.133.169.2.27.2.134 0 .201 0 .168-.034-.034-.033 0-.033.067-.033l.034.994c0 .066.033.132.1.165.067.034.101.1.101.2 0 .099-.034.33-.134.695-.101.365-.202.696-.303.961-.033.066-.033.165-.033.298 0 .133-.034.265-.067.365-.169.63-.37 1.325-.606 2.087a88.77 88.77 0 0 0-.605 2.054l-.033.033c0 .034 0 .067.033.1l.236-.165a5.082 5.082 0 0 0-.168.761c-.034.266-.135.53-.303.795.068.034.101.067.101.1s.033.066.067.1l6.588-.895c.134 0 .168.033.134.1-.033.066 0 .099.1.099.102 0 .17-.033.236-.067a.642.642 0 0 1 .27-.066c.335-.033.671.066.974.332.302.264.605.563.874.894l.134.199c.1-.067.202-.166.303-.265.1-.1.201-.199.336-.265v-.033c0-.067-.034-.1-.067-.133.1.066.235.066.37 0a.571.571 0 0 1 .403-.033c.37.066.705.166 1.042.298.336.133.638.265.907.398.37.331.672.729.874 1.193.201.463.302.861.336 1.225l-.672.166zM184.138 10.534c0 .134-.033.269-.067.403a.873.873 0 0 0-.068.502h-.337c-.1 0-.235.034-.303.034-.202.034-.236.101-.067.168-.169-.033-.37-.1-.573-.168-.27-.1-.472-.234-.64-.369-.472-.402-.91-.905-1.617-1.543-.64-.637-1.381-1.207-2.089-1.811-.033-.033-.033-.1-.1-.235-.102-.1-.135-.235-.169-.37-.034-.066 0-.234.034-.368a.258.258 0 0 0-.034-.335c.168 0 .236-.034.27-.067-.068-.101-.102-.168-.236-.202-.068 0-.135-.067-.203-.134l-.067-.402a.587.587 0 0 1 .404-.034c.068.034.135.067.236.067.067 0 .168-.033.202-.1.101-.034.202-.101.27-.168l.202.201c.134.1.337.1.505.1.067 0-.135.101-.067.034.1-.067.168-.1.27-.1.067.033.067.067.1.1-.033.034-.033.1 0 .168.068.067.202.167.404.302.17.1.304.235.405.369.37.302.741.704 1.246 1.14.472.437.842.872 1.213 1.376a.383.383 0 0 1 .101.234c.034.067.034.168.068.269 0 .034.303-.034.505 0 .1.067.067.168.135.268 0 .067.067.168.134.302.034.067.034.168.068.268l-.135.101zm-3.908 6.541c-.067-.067-.067-.134-.034-.201a.557.557 0 0 0 .068-.167 17.18 17.18 0 0 0-1.617 2.28 46.132 46.132 0 0 0-1.348 2.416l.202.235c.54-.638 1.045-1.41 1.516-2.282.472-.872.944-1.71 1.45-2.516l-.237.235zm8.355 5.602c-.034.134-.135.235-.303.336-.169.1-.27.201-.304.302-.168.168-.201.335-.1.503a4.06 4.06 0 0 1-.54.537c-.235.201-.471.402-.707.57 0 .033.034.067.101.134s.135.1.168.1a1.6 1.6 0 0 0-.572.235l-.64.403c-.203.134-.405.235-.573.335-.168.1-.27.135-.337.135h-1.415c-.336 0-.674-.135-1.01-.436a4.8 4.8 0 0 1-.843-1.007c-.236-.369-.438-.704-.572-1.04-.135-.335-.203-.536-.203-.57v-.771a8.21 8.21 0 0 0-.067-.906c-.168.302-.337.604-.539.872s-.404.57-.606.906c-.101.134-.27.369-.506.704-.235.336-.505.671-.808 1.007a7.98 7.98 0 0 1-.943.905c-.337.268-.607.403-.843.403-.1 0-.202.033-.337.067-.134.033-.235.067-.336.067-.573 0-.977-.134-1.247-.402-.27-.269-.573-.537-.876-.806-.033-.134-.067-.302-.135-.536-.067-.235-.1-.403-.1-.503 0-.504.134-1.141.438-1.913a28.022 28.022 0 0 1 2.358-4.63c.438-.703.808-1.24 1.111-1.609.101-.168.303-.369.573-.637.27-.269.54-.47.775-.638.168-.067.337-.2.505-.369.168-.167.337-.335.505-.47.034-.033.034-.1 0-.167-.033-.067-.033-.134 0-.168.17-.067.304-.1.405-.1a.543.543 0 0 0 .303-.101c.168-.1.303-.268.404-.47h.27c.235.202.438.302.606.302.101 0 .202 0 .303.034.101.033.203.033.303.033.203-.234.304-.402.27-.503-.034-.1.067-.167.304-.167.1 0 .168.033.168.134 0 .1.067.134.168.134.135 0 .168-.034.135-.067-.034-.034 0-.067.1-.067.203 0 .473.067.81.2.337.135.572.269.707.437.034.1.101.235.168.403.068.167.068.302 0 .369 0 .067.034.067.068 0s.067-.034.067.1c0 .067-.033.235-.101.503s-.168.57-.303.94c-.135.369-.236.771-.337 1.173-.101.403-.168.772-.236 1.074-.1.436-.202.94-.303 1.543-.101.604-.169 1.174-.236 1.711-.067.537-.101 1.006-.135 1.409-.033.402-.033.637-.033.67 0 .101.033.27.067.504.034.235.067.436.067.603a.87.87 0 0 0 .506.034c.168-.034.337-.067.471-.067.135 0 .438-.1.876-.268s.91-.37 1.415-.604c.505-.235.977-.436 1.415-.637.438-.202.674-.302.707-.336l-.471.134z"/>
        <path d="M195.054 15.253l-.229.034.033.168.229-.034-.033-.168zm5.46 6.977c-.13.236-.195.472-.228.708-.033.034-.033.101 0 .168.033.068.033.101 0 .135s-.065.068-.131.101c-.065.034-.098.101-.13.169a.6.6 0 0 0 .26.067l-.032.034c-.065.068-.098.101-.13.068a.387.387 0 0 0-.098.27c0 .1-.066.201-.164.302.032.102.065.203.065.304 0 .101.033.202.099.303-.099.101-.197.169-.295.236a.49.49 0 0 0-.196.304c-.098.168-.262.303-.49.438-.23.134-.393.27-.524.438-.098.033-.196.135-.327.303-.13.169-.196.304-.229.405-.229.033-.457.033-.72 0-.26-.034-.457-.067-.555-.067-.098 0-.229-.034-.425-.102a3.704 3.704 0 0 1-.655-.303 4.589 4.589 0 0 1-.588-.405c-.163-.135-.262-.235-.294-.303-.229-.506-.458-1.011-.654-1.55a7.479 7.479 0 0 1-.393-1.585c-.098-.337-.13-.809-.13-1.382 0-.573 0-1.112-.033-1.618-.033-.033-.033-.067 0-.1.033-.035.033-.068 0-.102a24.985 24.985 0 0 0-1.374 1.82c-.49.708-.98 1.349-1.438 1.921-.033.034-.033.102 0 .236-.164.304-.328.607-.49.91-.165.304-.36.573-.59.843-.163.203-.36.438-.621.708-.261.27-.425.404-.523.438-.098 0-.197-.067-.294-.168-.098-.101-.197-.135-.295-.101-.13 0-.163 0-.098.033.066.034.033.034-.065.034-.197.034-.36-.034-.491-.202a1.898 1.898 0 0 1-.294-.573 4.132 4.132 0 0 1-.163-.607c-.033-.202-.066-.303-.099-.337a.565.565 0 0 1-.196-.202c-.065-.101-.098-.236-.13-.405 0-.1.032-.37.13-.809.098-.438.164-.842.196-1.18a2.72 2.72 0 0 0 .262-.539c.065-.202.13-.37.164-.54.065-.235.097-.505.097-.808 0-.303.033-.573.099-.81a231.693 231.693 0 0 1 2.355-6.876V11.546c.163-.135.326-.27.49-.438.163-.169.327-.27.458-.304l.294.304c.098.1.196.236.294.404a.388.388 0 0 0 .098-.27c0-.1 0-.202-.032-.303.098.101.228.202.36.303.13.102.293.17.457.203 0 .1 0 .202-.033.303-.032.101 0 .202.066.304h.098s.032-.034.098-.068l.033.371c.033.101 0 .202-.066.337-.065.135-.13.27-.163.438-.033.304-.066.64-.098 1.045-.033.405-.099.776-.164 1.113a.65.65 0 0 1-.065.269l-.13.202a3.945 3.945 0 0 0-.197 1.484 3.31 3.31 0 0 0 .392-.506c.131-.203.294-.404.49-.607.197-.202.36-.404.524-.607.164-.202.327-.337.49-.404.164-.067.327-.101.49-.101.164 0 .36-.067.557-.169.098.102.196.169.261.236.066.068.131.135.164.236.098-.033.164-.067.229-.101s.164-.067.261-.101c.099 0 .23.067.393.236.163.168.327.303.458.404v.034c0 .034-.033.067-.066.1 0 .035.033.069.098.102a.24.24 0 0 0 .13.034c.197.404.36.674.46.809.097.135.163.27.195.371.033.1.033.168.033.236 0 .067 0 .202.032.438.033.034.033.236.033.573V19.6c0 .438 0 .877-.033 1.348a7.489 7.489 0 0 0 0 1.214 3.93 3.93 0 0 0 0 .876c.033.303.066.64.099.978.098.067.228.1.392.067.131 0 .294-.067.49-.169a5.26 5.26 0 0 0 .59-.337c.195-.135.424-.27.653-.404.23-.135.393-.236.49-.27h-.032c-.065 0-.098.034-.065.068l-.033.067h.13c.099-.034.263-.135.491-.337.23-.202.458-.371.687-.506l-.425.034zM218.058 20.406c-.1.1-.167.232-.234.398-.067.165-.167.265-.3.265-.1 0-.133-.033-.133-.066 0-.034 0-.034-.034.033 0 .066 0 .1-.033.132-.034.034 0 .034.1.034h.267a1.13 1.13 0 0 0-.2.297c-.067.133-.067.232-.034.298-.2.166-.434.332-.667.498a4.742 4.742 0 0 0-.6.496c0 .1.066.133.166.133v.331c-.4.232-.834.497-1.3.795-.468.298-1.002.63-1.602.994a1.145 1.145 0 0 0-.2.298c-.067.132-.134.232-.234.298-.1.033-.267.1-.5.199-.234.099-.5.198-.767.298a6.1 6.1 0 0 1-.835.231c-.3.067-.534.1-.7.1-.434 0-.834-.1-1.235-.298a3.967 3.967 0 0 1-1.034-.762c-.3-.298-.534-.662-.734-1.06a3.09 3.09 0 0 1-.333-1.126V22.394c0-.497.066-1.16.234-2.02.166-.862.4-1.59.733-2.154.034-.033.067-.1.067-.198 0-.1 0-.2.033-.298.167-.332.334-.663.5-.961.168-.298.368-.596.601-.861l.434-.43a2.36 2.36 0 0 0 .334-.465c0-.033 0-.066-.034-.1-.1.1-.133.167-.133.2.2-.232.433-.563.667-.96.234-.398.5-.73.767-1.028.067-.1.167-.165.334-.199.166-.033.3-.066.433-.132.1-.066.2-.132.267-.232s.167-.132.3-.132c.1 0 .301.033.635.1.333.065.6.132.767.231.167.1.4.265.7.497.3.232.5.497.6.762.1.165.168.397.235.662.066.265.1.464.1.596 0 .1-.034.265-.067.53s-.1.53-.167.795-.134.53-.233.762c-.1.232-.2.365-.301.397-.1.067-.267.1-.5.1-.267 0-.467-.1-.6-.265a1.69 1.69 0 0 1-.301-.596 3.266 3.266 0 0 0-.233-.497.527.527 0 0 1-.034-.497v-.033h-.1a17.573 17.573 0 0 0-1.634 2.352c-.468.795-.835 1.49-1.135 2.12-.1.198-.2.43-.3.728l-.3.895c-.1.298-.167.563-.234.794a3.03 3.03 0 0 0-.1.398v.464c.167.066.334.132.534.165s.333.067.433.067c.1 0 .3-.067.6-.199.301-.133.602-.265.868-.364.601-.232 1.268-.497 2.002-.762a19.051 19.051 0 0 0 2.269-.994c.2-.1.533-.298 1-.563.468-.265.901-.497 1.302-.663h-.167z"/>
        <path d="M222.917 16.326h.17v-.496h-.17v.496zm6.651-9.723c0 .199-.1.43-.304.629.136.198.102.363-.067.562-.27.231-.608.496-1.013.827-.439.33-.877.628-1.283.926a4.242 4.242 0 0 0-.54.43c-.135.099-.338.297-.641.529-.102.033-.169.099-.27.198l-.44.397c-.202.231-.438.397-.64.562-.203.132-.372.232-.474.232-.135 0-.337-.067-.675-.166-.303-.066-.506-.165-.675-.231 0-.1 0-.166-.067-.265-.068-.099-.102-.165-.102-.264 0-.265.102-.497.237-.596.168-.132.202-.297.067-.562l.101-.166v.1c0 .033.034.066.068.1a.25.25 0 0 0 .068-.133c0-.067.034-.132.101-.198a21.316 21.316 0 0 1 2.296-1.687c.81-.463 1.418-.827 1.822-1.091l.338.066-.135-.166h.101c.034 0 .068 0 .102-.033l-.102.1h.136c.101 0 .337-.1.709-.298.371-.232.709-.364.978-.463.068.099.136.198.17.264.033.1.067.199.067.298l.067.1zm-5.84 11.277c0-.132-.034-.33-.135-.595a4.27 4.27 0 0 0-.304-.661 6.1 6.1 0 0 1-.709 1.124c-.303.397-.54.695-.709.926l-.608 1.19a47.16 47.16 0 0 1-.709 1.323c-.236.43-.405.827-.54 1.158-.135.331-.202.529-.202.562v.298c.236-.165.506-.364.81-.628.304-.265.507-.397.608-.397.101 0 .101.033 0 .099s-.068.099.067.099c.101 0 .237-.132.405-.364.17-.231.338-.496.507-.76.168-.265.337-.53.506-.76a5.38 5.38 0 0 1 .304-.398c.034-.066.101-.232.202-.463.102-.231.203-.496.304-.76.102-.265.17-.496.236-.695.068-.198.102-.33.102-.364l-.135.066zm2.937.993c0 1.223-.439 2.413-1.283 3.604-.844 1.19-1.89 2.316-3.14 3.374-.067.033-.1.099-.135.198-.033.1-.067.198-.101.264-.776.463-1.486.695-2.127.695-.506 0-.911-.132-1.249-.397l-1.013-.794c-.101-.099-.202-.297-.303-.595-.101-.298-.237-.43-.44-.43l-.168-.76c-.068-.298-.102-.496-.102-.596 0-.364.068-.793.203-1.29a18.438 18.438 0 0 1 .98-2.678c.168-.364.303-.595.404-.728.034-.033.068-.132.068-.264s.034-.232.1-.298a3.11 3.11 0 0 1 .406-.595 3.09 3.09 0 0 0 .405-.595c.068-.034.102-.067.135-.067.034 0 .068 0 .135-.033a.181.181 0 0 0 .102-.165.52.52 0 0 1 .1-.265c.102-.165.237-.297.406-.397.169-.099.304-.23.405-.397a.553.553 0 0 0 .101-.33c0-.132.034-.264.102-.364-.034 0-.102-.033-.203-.066-.1-.033-.169 0-.236.1 0-.1-.034-.166-.068-.2-.067.034-.1.133-.1.266 0-.166-.069-.232-.237-.232l.067-.033c.034 0 .068-.033.136-.1-.035-.297.067-.561.27-.793.202-.231.472-.43.776-.595.304-.166.607-.298.911-.397.305-.1.507-.199.608-.298.101.165.202.232.338.198.135-.033.303 0 .472.1.102.066.27.198.506.43l.575.562c0 .033.033.066.067.132.034.1.068.166.101.199.034.033.102.033.17.033a.26.26 0 0 1 .168.066c.506.694.945 1.389 1.283 2.05.338.661.506 1.356.506 2.05l-.101.43zM245.744 14.146a.18.18 0 0 1-.1.165c-.068.032-.134.098-.201.164 0 .099.067.132.167.132-.034.164-.1.263-.2.296-.102.033-.068.131.1.296-.168.099-.369.197-.57.296-.201.099-.369.198-.536.296 0 .066.034.099.1.132l.201.099c-.1.296-.334.493-.67.592-.334.099-.67.197-1.004.263-.067.099-.168.264-.335.461-.168.198-.302.296-.402.296-.1 0-.135-.033-.1-.066.033-.032.033-.066-.035-.098-.1 0-.134.098-.134.296a9.32 9.32 0 0 0-1.105.296l-1.206.395c-.033.033-.033.066 0 .099.034.033.034.066.034.098-.034 0-.067 0-.067-.032 0-.033-.067-.033-.202-.033-.066 0-.267.065-.602.197-.335.132-.637.23-.905.33l-.134.131a.521.521 0 0 0-.134.23 1.15 1.15 0 0 0-.502.23c-.168.132-.335.231-.47.33-.066.263-.134.592-.2.954-.067.362-.134.724-.201 1.053-.068.33-.101.625-.134.889-.034.263-.067.428-.067.494 0 .065 0 .164.033.329.034.164.067.329.1.526.034.198.068.362.101.527.034.164.067.263.067.296 0 .099-.067.197-.201.33-.134.13-.2.262-.2.427-.034 0-.102 0-.202.033-.1.033-.201.033-.302.033-.1 0-.167-.066-.2-.198a.634.634 0 0 0-.168-.296c-.502-.46-.77-.888-.803-1.316-.034-.428-.101-.856-.168-1.284-.068-.23-.068-.658 0-1.25.067-.593.1-1.317.067-2.14 0-.033-.067-.132-.168-.296l-.301-.494-.302-.46c-.1-.132-.134-.23-.134-.297 0-.098.033-.296.1-.559.068-.263.101-.527.101-.757.1-.099.168-.164.168-.197l.201-.099a.487.487 0 0 1 .234-.066c.134 0 .202 0 .168.033s.034.033.167.033c.1 0 .201-.066.302-.165a.776.776 0 0 0 .201-.296c.1-.23.2-.592.301-1.053.1-.46.201-.954.302-1.481l.301-1.58c.1-.526.201-.954.302-1.316.167-.724.368-1.448.603-2.172.234-.724.469-1.481.67-2.238.1-.362.2-.757.335-1.185.134-.427.267-.856.435-1.283.1-.33.201-.724.302-1.185.1-.46.3-.79.636-1.02a.65.65 0 0 1 .301-.165c.135-.032.235-.066.269-.066.133 0 .267.1.402.264.134.164.268.263.368.263h.369l-.1.033v.164c0 .066.033.165.1.33.066.164.134.328.234.493.1.165.167.33.235.494.067.164.1.263.1.329 0 .099-.033.296-.1.592-.068.297-.168.56-.269.79.068.23.101.428.101.593-.335 1.119-.67 2.205-1.005 3.29-.335 1.086-.67 2.14-1.005 3.16-.067.428-.167.889-.301 1.382l-.402 1.481v.165a.55.55 0 0 0 .301.099h.402c.168-.066.402-.099.703-.099.101 0 .134.033.101.099-.033.065.033.098.168.098.1 0 .234-.033.368-.098.134-.066.302-.099.469-.132.77-.132 1.575-.23 2.445-.296.871-.066 1.843-.165 2.881-.263l-.569-.165z"/>
        <path d="M257.116 22.896c-.235.23-.604.494-1.109.79v.065c0 .033.034.066.068.099.134-.099.268-.164.403-.164a.913.913 0 0 0 .403-.1c-.134.066-.235.198-.302.395a1.207 1.207 0 0 1-.27.461.703.703 0 0 1-.335.198.475.475 0 0 0-.303.262c-.067.033-.1.132-.1.264 0 .131-.034.23-.068.33a1.17 1.17 0 0 0-.403.328 2.875 2.875 0 0 1-.571.493c.1.099.168.132.201.132a6.676 6.676 0 0 0-.604.329c-.27.164-.47.23-.605.23-.101 0-.303-.033-.571-.066-.27-.032-.471-.065-.606-.065-.033 0-.1-.033-.235-.1-.134-.065-.268-.164-.403-.262-.134-.1-.269-.198-.403-.296-.134-.099-.202-.165-.235-.198-.034-.099-.101-.23-.168-.395-.068-.164-.134-.296-.235-.395a1.194 1.194 0 0 0-.236-.46 2.627 2.627 0 0 1-.302-.46 8.22 8.22 0 0 1-.403-2.14c-.034-.36-.034-.723-.034-1.052 0-.329.034-.69.1-1.053l-.066-.46c-.975.625-1.815 1.612-2.554 2.96-.74 1.35-1.546 2.403-2.42 3.16v.032c0 .033.034.033.101.033H244.616c-.101 0-.202.033-.336.099a5.903 5.903 0 0 0-.437.23 5.725 5.725 0 0 0-.303-.46c-.1-.132-.201-.297-.302-.461a1.137 1.137 0 0 1-.202-.46c-.033-.165-.134-.33-.302-.494 0-.23-.034-.527-.1-.855-.068-.33-.102-.56-.102-.691 0-.362.101-1.086.27-2.205.167-1.118.369-2.04.604-2.73.235-.691.437-1.316.638-1.843.202-.526.303-.79.303-.822 0-.165.033-.33.1-.494.068-.164.135-.329.169-.46.1-.1.168-.165.201-.23.101-.428.236-.922.437-1.48.202-.56.404-1.054.571-1.481.068-.198.068-.363-.033-.527.1-.33.235-.724.403-1.151.168-.428.336-.889.504-1.35.168-.46.37-.92.571-1.348.202-.428.37-.823.505-1.184.235-.494.437-.889.604-1.185.168-.296.47-.428.908-.428.134 0 .268.033.437.132a.823.823 0 0 0 .436.131c.068.132.135.198.168.198.135.23.236.526.27.921.033.395.067.658.067.822 0 .1-.034.264-.068.527-.033.263-.1.46-.201.625l-4.738 12.6c.167 0 .335-.098.47-.296.134-.197.269-.361.37-.46.134-.165.336-.33.57-.526.236-.198.438-.362.572-.527.034-.066.202-.23.47-.494.27-.263.538-.559.84-.888.303-.329.605-.625.874-.888.27-.263.437-.394.538-.394.1 0 .202.065.269.164a.523.523 0 0 0 .269.197c.134.033.302.033.504.033.201 0 .403.033.57.131.606.428.976.856 1.143 1.284.169.427.236.855.236 1.316l-.572 4.638a1.535 1.535 0 0 0 .235.888c.202-.065.337-.098.37-.065.034.033.101.033.202.033.067 0 .202-.033.403-.132.202-.099.437-.197.706-.329.269-.131.537-.263.806-.361.27-.1.47-.165.605-.198.168-.033.336-.066.504-.132l.504-.197v.362z"/>
        <path d="M268.972 3.605c-.304 1.308-.575.872-1.218 1.61-.643.737-.541.871-.745 1.14-.202.301-.304.368-.372.402-.067.067-.135.067-.135 0 0-.1-.101-.067-.203-.034-.034.034-.17.101-.203.135l-.034.1-.034-.067c-.033-.033-.033-.067-.033-.1-.203-.068-.339-.101-.373-.068-.034 0-.169-.1-.372-.301-.068-.1-.237-.201-.17-.37.035-.166.17-.334.34-.569.168-.168.473-.537.845-1.073.406-.537.542-1.073.068-1.61-.135-.033-.237-.033-.338-.033-.102.033-.203.066-.339.1-.169.1-.304.235-.507.369-.17.201-.305.335-.677.335-.034-.167-.305-.603-.373-.637-.067-.067-.135-.067-.135-.134 0-.1-.034-.201-.034-.37a.975.975 0 0 1-.067-.334c.033-.101.27-.268.642-.604.373-.301.644-.436.745-.402.068.033.17 0 .203-.034.102-.067.135-.1.203-.167 0-.034.102-.101.204-.134l.1.066c.17-.066.34-.1.542-.2.237-.068.372-.101.542-.068.372.034.676.202.913.503.203.336.407.537.575.67.102 0 .17.102.238.269.1.201.304 1.14.202 1.61zm-3.552 6.74c0 .067-.068.134-.17.168-.101.034-.068.201.102.503-.17.034-.373.1-.643.201-.271.1-.44.134-.542.134-.068 0-.169-.067-.304-.2l-.305-.303c-.135-.201-.27-.436-.406-.67a2.493 2.493 0 0 0-.541-.671c-.305.235-.711.536-1.219.905-.507.37-.947.638-1.32.839-.033-.034-.067-.067-.1-.067-.035 0-.068-.068-.068-.168-.102.034-.237.1-.373.201-.135.1-.27.168-.406.201.102-.033.17-.134.237-.268.068-.134.102-.268.135-.369l-.033-.033c-.034-.034-.068-.034-.068.033s-.068.1-.17.1c-.101 0-.135-.033-.101-.066.034-.034.034-.067-.034-.1l-.203.234c-.033 0-.101 0-.169-.034-.101 0-.169-.033-.237-.067.068-.168.136-.335.17-.503.033-.167.1-.302.203-.436a1.76 1.76 0 0 1 .406-.469c.169-.134.338-.302.507-.47.305-.302.576-.603.779-.871.202-.269.405-.537.575-.772.27-.302.575-.604.88-.872.304-.268.609-.536.913-.77.305.234.576.536.812.938l.136-.134c.135.302.304.637.507 1.04.203.402.373.804.542 1.173.169.369.304.704.406.973.102.268.17.436.17.47l-.068.2zm-.711 13.649c-.17.067-.305.134-.406.235a.778.778 0 0 1-.407.2c0 .169.136.269.373.336-.068.1-.136.201-.203.336a5.386 5.386 0 0 0-.203.436c-.305-.068-.508.033-.643.301a1.775 1.775 0 0 0-.204.805c-.203.067-.405.1-.608.134-.203.034-.44.034-.677.034-.102.033-.102.067-.034.1.068.034.135.034.203.034-.17.033-.372.1-.61.201-.236.1-.44.168-.608.201v.101c0 .034-.034.067-.135.067-.102 0-.238-.033-.407-.1-.169-.068-.338-.135-.473-.168a.824.824 0 0 0-.406 0c-.136.033-.204.134-.237.301l-.373-.502c-.507-.101-.88-.235-1.116-.403-.237-.168-.576-.47-1.016-.905-.168-.1-.27-.168-.338-.201-.068-.034-.101-.101-.135-.202-.034-.1-.102-.268-.17-.536a29.216 29.216 0 0 1-.304-1.442c-.101-.671-.101-1.208 0-1.61.102-.402.203-.737.27-1.006.069-.302.204-.738.44-1.308.237-.57.475-1.107.711-1.61.136-.268.305-.603.474-.972.17-.37.373-.771.61-1.174.1-.167.236-.369.405-.603.17-.235.305-.47.406-.704.237-.235.44-.436.576-.604.135-.168.372-.369.71-.57.17-.067.373-.168.61-.269.236-.1.338-.234.304-.402-.034.034-.068.067-.068.1 0 .068.034.101.136.101.135 0 .169-.033.1-.067-.067-.033-.033-.067.103-.067.101 0 .236.067.44.168.202.1.372.167.54.2.035.169.069.303.069.437s.067.2.169.2c.135 0 .169-.033.135-.066s0-.067.101-.067a.31.31 0 0 1 .238.1l.203.202c0 .335.034.57.101.704.068.134.136.235.237.268.102.034.203.068.27.134.068.067.102.202.102.436 0 .034-.034.168-.068.37-.033.2-.067.435-.135.703l-.203.805c-.067.268-.135.504-.203.738a8.825 8.825 0 0 1-.643 1.04c-.304.435-.609.838-.913 1.207-.27.268-.576.603-.88.972-.305.37-.61.704-.914 1.04-.304.335-.575.604-.778.838-.203.235-.305.403-.305.504 0 .133.135.268.373.435.236.168.473.302.676.403.102.067.271.1.474.1h.507c.17 0 .339-.033.508-.134.17-.1.406-.1.677 0 .44-.134.88-.268 1.286-.402s.778-.235 1.116-.336c.102.1.204.135.305.135l-.135.268z"/>
    </g>
</svg>
